<?xml version="1.0" encoding="utf-8"?>
<!-- Generator: Adobe Illustrator 23.0.0, SVG Export Plug-In . SVG Version: 6.00 Build 0)  -->
<svg version="1.1" id="logos" xmlns="http://www.w3.org/2000/svg" xmlns:xlink="http://www.w3.org/1999/xlink" x="0px" y="0px"
	 viewBox="0 0 449.5 423.8" style="enable-background:new 0 0 449.5 423.8;" xml:space="preserve">
<style type="text/css">
	.st0{fill:#00B5EF;}
	.st1{fill:#FFFFFF;}
	.st2{fill:#263287;}
</style>
<path class="st0" d="M224.8,3.7c-76.8,0-139,39.8-139,88.9s62.2,92.8,139,92.8s139-43.7,139-92.8S301.5,3.7,224.8,3.7L224.8,3.7z"/>
<path class="st1" d="M179.6,65.1c-0.1,0.1-1.4,1.5-0.5,2.7c2.1,2.8,8.8,4.3,15.5,2.8c4-0.9,9.1-5,14.1-8.9
	c5.4-4.3,10.7-8.6,16.1-10.3c5.7-1.8,9.3-1,11.7-0.3c2.6,0.8,5.7,2.5,10.7,6.2c9.3,7,46.8,39.7,53.3,45.4c5.2-2.4,30-12.4,61.5-19.3
	C359.1,66.6,349,50.6,333.5,38c-21.6,9.1-49.7,14.5-75.5,1.9c-0.1-0.1-14.1-6.7-27.9-6.3c-20.5,0.5-29.3,9.3-38.7,18.7L179.6,65.1
	L179.6,65.1z"/>
<path class="st1" d="M298.8,106.3c-0.4-0.4-44.1-38.6-53.9-46c-5.7-4.3-8.9-5.4-12.2-5.8c-1.7-0.2-4.1,0.1-5.8,0.6
	c-4.6,1.3-10.6,5.3-15.9,9.5c-5.5,4.4-10.7,8.5-15.6,9.6c-6.2,1.4-13.7-0.3-17.2-2.6c-1.4-0.9-2.4-2-2.9-3.1
	c-1.3-2.9,1.1-5.3,1.5-5.7l12-13c1.4-1.4,2.8-2.8,4.3-4.2c-3.9,0.5-7.5,1.5-11,2.5c-4.4,1.2-8.6,2.4-12.8,2.4
	c-1.8,0-11.3-1.6-13.1-2c-10.9-3-23.2-5.9-37.5-12.6c-17.1,12.7-28.3,28.4-31.6,45.9c2.5,0.6,8.9,2.1,10.6,2.5
	c38.7,8.6,50.8,17.5,53,19.3c2.4-2.6,5.8-4.3,9.6-4.3c4.3,0,8.1,2.2,10.5,5.5c2.2-1.8,5.3-3.3,9.2-3.3c1.8,0,3.7,0.3,5.5,1
	c4.4,1.5,6.6,4.4,7.8,7c1.5-0.7,3.3-1.1,5.4-1.1c2.1,0,4.3,0.5,6.4,1.4c7.1,3.1,8.3,10.1,7.6,15.4c0.5-0.1,1-0.1,1.5-0.1
	c8.5,0,15.4,6.9,15.4,15.4c0,2.6-0.7,5.1-1.8,7.3c2.3,1.3,8.2,4.2,13.3,3.6c4.1-0.5,5.7-1.9,6.2-2.7c0.4-0.5,0.8-1.2,0.4-1.6
	l-10.9-12.1c0,0-1.8-1.7-1.2-2.4c0.6-0.7,1.7,0.3,2.5,1c5.6,4.6,12.4,11.6,12.4,11.6c0.1,0.1,0.6,1,3.1,1.4c2.2,0.4,6,0.2,8.6-2
	c0.7-0.5,1.3-1.2,1.9-1.9c0,0-0.1,0.1-0.1,0.1c2.8-3.6-0.3-7.2-0.3-7.2L251,121.1c0,0-1.8-1.7-1.2-2.4c0.5-0.6,1.7,0.3,2.5,1
	c4,3.4,9.7,9.1,15.2,14.5c1.1,0.8,5.9,3.8,12.2-0.4c3.9-2.5,4.6-5.6,4.5-8c-0.3-3.1-2.7-5.3-2.7-5.3l-17.4-17.5c0,0-1.8-1.6-1.2-2.4
	c0.5-0.7,1.7,0.3,2.5,0.9c5.5,4.6,20.6,18.4,20.6,18.4c0.2,0.1,5.4,3.9,11.8-0.2c2.3-1.5,3.8-3.7,3.9-6.3
	C302,108.9,298.8,106.3,298.8,106.3L298.8,106.3z"/>
<path class="st1" d="M214.3,128.5c-2.7,0-5.7,1.6-6,1.3c-0.2-0.1,0.2-1.2,0.4-1.9c0.3-0.6,3.8-11.3-4.9-15
	c-6.6-2.9-10.7,0.4-12.1,1.8c-0.4,0.4-0.5,0.4-0.6-0.1c-0.1-1.9-1-7.1-6.7-8.9c-8.2-2.5-13.5,3.2-14.8,5.3c-0.6-4.7-4.5-8.3-9.4-8.3
	c-5.3,0-9.5,4.3-9.5,9.5c0,5.3,4.3,9.5,9.5,9.5c2.5,0,4.9-1,6.6-2.6c0,0,0.1,0.1,0,0.3c-0.4,2.4-1.1,10.9,7.8,14.4
	c3.6,1.4,6.6,0.4,9.2-1.4c0.8-0.5,0.9-0.3,0.8,0.4c-0.3,2.2,0.1,6.9,6.7,9.6c5,2,8,0,9.9-1.9c0.9-0.8,1.1-0.6,1.1,0.5
	c0.2,6.4,5.5,11.4,11.9,11.4c6.6,0,12-5.3,12-11.9C226.3,133.8,220.9,128.6,214.3,128.5L214.3,128.5z"/>
<path class="st2" d="M224.8,0C146.5,0,83.1,41.6,83.1,92.6c0,1.3,0,5,0,5.4c0,54.1,55.4,98,141.6,98s141.7-43.8,141.7-98v-5.4
	C366.4,41.6,303,0,224.8,0L224.8,0z M360,82.4c-30.8,6.8-53.7,16.8-59.5,19.3C287.1,90,256,63,247.6,56.7c-4.8-3.6-8.1-5.5-11-6.4
	c-1.3-0.4-3.1-0.8-5.4-0.8c-2.1,0-4.4,0.4-6.8,1.1c-5.4,1.7-10.9,6-16.1,10.2l-0.3,0.2c-4.9,3.9-9.9,7.9-13.7,8.7
	c-1.7,0.4-3.4,0.6-5.1,0.6c-4.3,0-8.1-1.2-9.6-3.1c-0.2-0.3-0.1-0.8,0.5-1.5l0.1-0.1l11.8-12.7c9.3-9.3,18-18,38.1-18.5
	c0.3,0,0.7,0,1,0c12.5,0,25.1,5.6,26.5,6.3c11.8,5.7,23.9,8.6,36.1,8.6c12.7,0,25.8-3.1,39.5-9.4C347.6,52,357.1,66.5,360,82.4
	L360,82.4z M224.8,5.5c41.5,0,78.7,11.9,103.7,30.6c-12.1,5.2-23.6,7.9-34.7,7.9c-11.4,0-22.7-2.7-33.7-8.1
	c-0.6-0.3-14.4-6.8-28.8-6.8c-0.4,0-0.8,0-1.1,0c-16.9,0.4-26.4,6.4-32.8,11.7c-6.2,0.1-11.6,1.7-16.4,3c-4.3,1.2-8,2.2-11.5,2.2
	c-1.5,0-4.1-0.1-4.4-0.1c-4.1-0.1-24.8-5.2-41.4-11.4C148.5,16.6,184.6,5.5,224.8,5.5L224.8,5.5z M118.6,38
	c17.3,7.1,38.2,12.5,44.9,12.9c1.9,0.1,3.8,0.3,5.8,0.3c4.4,0,8.8-1.2,13-2.4c2.5-0.7,5.3-1.5,8.2-2c-0.8,0.8-1.5,1.5-2.3,2.3
	l-12,13c-0.9,0.9-3,3.5-1.6,6.6c0.5,1.3,1.6,2.5,3.2,3.5c2.9,1.9,8,3.2,12.8,3.2c1.8,0,3.5-0.2,5.1-0.5c5-1.1,10.3-5.3,15.9-9.8
	c4.5-3.5,10.8-8,15.6-9.4c1.4-0.4,3-0.6,4.4-0.6c0.4,0,0.8,0,1.1,0.1c3.2,0.4,6.3,1.5,11.8,5.6c9.9,7.4,53.5,45.6,53.9,45.9
	c0,0,2.8,2.4,2.6,6.4c-0.1,2.2-1.3,4.2-3.5,5.6c-1.9,1.2-3.8,1.8-5.7,1.8c-2.9,0-4.9-1.4-5.1-1.5c-0.2-0.1-15.1-13.8-20.6-18.4
	c-0.9-0.7-1.7-1.4-2.6-1.4c-0.5,0-0.9,0.2-1.1,0.5c-0.9,1.1,0.1,2.5,1.3,3.5L281,121c0,0,2.2,2,2.4,4.7c0.1,2.9-1.3,5.3-4.1,7.2
	c-2.1,1.4-4.1,2-6.2,2c-2.7,0-4.6-1.2-5-1.5l-2.5-2.5c-4.6-4.5-9.3-9.2-12.8-12c-0.9-0.7-1.7-1.4-2.6-1.4c-0.4,0-0.8,0.2-1.1,0.5
	c-0.4,0.4-0.7,1.2,0.3,2.5c0.4,0.5,0.9,1,0.9,1l12.7,14.3c0.1,0.1,2.6,3.1,0.3,6.1l-0.5,0.6c-0.4,0.4-0.8,0.8-1.2,1.1
	c-2.2,1.8-5.1,2-6.2,2c-0.6,0-1.2,0-1.7-0.1c-1.3-0.2-2.1-0.6-2.5-1.1l-0.2-0.2c-0.7-0.7-7.1-7.3-12.4-11.7
	c-0.7-0.6-1.6-1.3-2.5-1.3c-0.5,0-0.8,0.2-1.1,0.5c-1,1.1,0.5,2.9,1.2,3.5l10.9,12c0,0.1-0.1,0.4-0.4,0.7c-0.4,0.5-1.7,1.9-5.6,2.4
	c-0.5,0.1-1,0.1-1.4,0.1c-4.1,0-8.4-2-10.6-3.2c1-2.1,1.5-4.5,1.5-6.9c0-8.9-7.3-16.2-16.2-16.2c-0.2,0-0.4,0-0.6,0
	c0.3-4.1-0.3-11.8-8.2-15.2c-2.3-1-4.6-1.5-6.8-1.5c-1.7,0-3.4,0.3-5,0.9c-1.6-3.2-4.4-5.5-7.9-6.7c-2-0.7-3.9-1-5.8-1
	c-3.3,0-6.4,1-9.1,2.9c-2.6-3.2-6.5-5.1-10.7-5.1c-3.6,0-7.1,1.4-9.7,4c-3.4-2.6-16.8-11.1-52.7-19.3c-1.7-0.4-5.6-1.5-8.1-2.2
	C93.2,64.8,103.5,50.1,118.6,38L118.6,38z M185.3,131.5l-0.4-0.4h-0.4c-0.3,0-0.6,0.1-1.1,0.4c-1.8,1.3-3.6,1.9-5.4,1.9
	c-1,0-2-0.2-3-0.6c-8.3-3.2-7.7-11.1-7.3-13.5c0.1-0.5-0.1-0.9-0.4-1.1l-0.6-0.5l-0.5,0.5c-1.6,1.6-3.7,2.4-6,2.4
	c-4.8,0-8.6-3.9-8.6-8.6c0-4.8,3.9-8.6,8.7-8.6c4.3,0,8,3.2,8.5,7.5l0.3,2.3l1.3-2c0.1-0.2,3.6-5.5,10.1-5.5c1.2,0,2.5,0.2,3.8,0.6
	c5.1,1.6,6,6.2,6.1,8.1c0.1,1.1,0.9,1.2,1,1.2c0.4,0,0.8-0.3,1-0.5c1-1,3.1-2.7,6.4-2.7c1.5,0,3.1,0.4,4.8,1.1
	c8.1,3.5,4.5,13.8,4.4,13.9c-0.7,1.7-0.7,2.5-0.1,2.9l0.3,0.1h0.2c0.4,0,0.8-0.2,1.6-0.4c1.1-0.4,2.8-1,4.3-1l0,0
	c6.1,0.1,11.1,5.1,11.1,11.1c0,6.1-5,11.1-11.1,11.1c-6,0-10.9-4.7-11.1-10.6c0-0.5-0.1-1.9-1.2-1.9c-0.5,0-0.9,0.3-1.3,0.7
	c-1.3,1.2-3,2.5-5.4,2.5c-1.1,0-2.3-0.3-3.6-0.8c-6.3-2.6-6.4-6.9-6.1-8.6C185.6,132.4,185.6,131.9,185.3,131.5L185.3,131.5z
	 M224.8,179.7c-75.2,0-136.2-39-136.2-87.1c0-1.9,0.1-3.9,0.3-5.8c0.6,0.1,6.6,1.6,7.8,1.9c36.7,8.1,48.8,16.6,50.9,18.2
	c-0.7,1.7-1.1,3.5-1.1,5.3c0,7.6,6.2,13.8,13.7,13.8c0.9,0,1.7-0.1,2.5-0.2c1.1,5.6,4.8,9.8,10.4,12c1.6,0.6,3.3,0.9,4.9,0.9
	c1,0,2.1-0.1,3.1-0.4c1,2.6,3.4,5.9,8.5,8c1.8,0.7,3.6,1.1,5.4,1.1c1.4,0,2.9-0.3,4.2-0.8c2.5,6,8.4,10.1,15,10.1
	c4.4,0,8.6-1.8,11.6-4.9c2.6,1.5,8.1,4.1,13.7,4.1c0.7,0,1.4,0,2.1-0.1c5.5-0.7,8.1-2.9,9.3-4.5c0.2-0.3,0.4-0.6,0.6-0.9
	c1.3,0.4,2.8,0.7,4.4,0.7c3,0,5.9-1,8.9-3.2c2.9-2.1,4.9-5.1,5.2-7.6c0,0,0-0.1,0-0.1c1,0.2,2,0.3,3,0.3c3.1,0,6.2-1,9.1-2.9
	c5.7-3.7,6.6-8.5,6.5-11.7c1,0.2,2,0.3,3,0.3c2.9,0,5.8-0.9,8.5-2.6c3.5-2.2,5.6-5.7,5.9-9.7c0.2-2.7-0.5-5.4-1.9-7.8
	c9.5-4.1,31-11.9,56.5-17.7c0.1,1.4,0.2,2.9,0.2,4.4C361,140.7,300,179.7,224.8,179.7L224.8,179.7z"/>
<g>
	<path class="st2" d="M441.8,252.4c-5.1-6.5-13-9.7-23.4-9.7s-18.3,3.2-23.4,9.7c-5.2,6.4-7.7,14.1-7.7,22.8s2.6,16.6,7.7,22.9
		c5.1,6.3,13,9.5,23.4,9.5s18.3-3.2,23.4-9.5c5.2-6.4,7.7-14,7.7-22.9S446.9,258.8,441.8,252.4z M429,289.3c-2.5,3.3-6.1,5-10.7,5
		s-8.3-1.7-10.8-5c-2.5-3.3-3.8-8-3.8-14.1s1.3-10.8,3.8-14.1c2.5-3.3,6.1-4.9,10.8-4.9s8.2,1.6,10.7,4.9c2.5,3.3,3.7,8,3.7,14.1
		S431.5,286,429,289.3z"/>
	<path class="st2" d="M310.3,247c-5.2-2.6-11.2-4-17.9-4c-10.3,0-17.6,2.7-21.9,8.1c-2.7,3.4-4.2,7.8-4.5,13.2h15.4
		c0.4-2.4,1.1-4.2,2.3-5.6c1.6-1.9,4.3-2.8,8.1-2.8c3.4,0,6,0.5,7.8,1.4c1.8,1,2.6,2.7,2.6,5.2c0,2.1-1.2,3.6-3.4,4.5
		c-1.3,0.6-3.4,1-6.4,1.4l-5.5,0.7c-6.2,0.8-10.9,2.1-14.1,3.9c-5.8,3.4-8.8,8.8-8.8,16.3c0,5.8,1.8,10.3,5.4,13.4
		c3.6,3.2,8.2,4.5,13.8,4.7c34.9,1.6,34.5-18.4,34.8-22.5v-23C318.1,254.6,315.5,249.6,310.3,247L310.3,247z M302.2,281.8
		c-0.1,5.3-1.6,9-4.6,11c-2.9,2-6.2,3-9.6,3c-2.2,0-4.1-0.6-5.6-1.8c-1.5-1.2-2.3-3.2-2.3-5.9c0-3.1,1.3-5.3,3.8-6.8
		c1.5-0.9,3.9-1.6,7.4-2.2l3.6-0.7c1.8-0.4,3.2-0.7,4.3-1.1c1-0.4,2.1-0.9,3.1-1.5L302.2,281.8L302.2,281.8z"/>
	<path class="st2" d="M230.8,256.7c4,0,6.9,1.2,8.8,3.7c1.3,1.8,2.1,3.9,2.4,6.1h17.2c-0.9-8.7-4-14.8-9.1-18.2
		c-5.1-3.4-11.7-5.1-19.8-5.1c-9.5,0-16.9,2.9-22.3,8.7c-5.4,5.8-8.1,14-8.1,24.4c0,9.3,2.4,16.8,7.3,22.6
		c4.9,5.8,12.5,8.7,22.8,8.7s18.2-3.5,23.4-10.5c3.3-4.3,5.1-8.9,5.5-13.8h-17.1c-0.4,3.2-1.4,5.8-3,7.8c-1.6,2-4.4,3-8.4,3
		c-5.5,0-9.3-2.5-11.3-7.6c-1.1-2.7-1.7-6.3-1.7-10.8s0.6-8.4,1.7-11.3C221.2,259.3,225.1,256.7,230.8,256.7L230.8,256.7z"/>
	<path class="st2" d="M195.3,243.2c-35.4,0-33.3,31.3-33.3,31.3v31.8h16v-29.8c0-4.9,0.6-8.5,1.8-10.9c2.2-4.2,6.5-6.3,12.9-6.3
		c0.5,0,1.1,0,1.9,0.1c0.8,0,1.7,0.1,2.7,0.2v-16.3c-0.7,0-1.2-0.1-1.4-0.1C195.8,243.2,195.6,243.2,195.3,243.2L195.3,243.2z"/>
	<path class="st2" d="M149.2,255.1c-2.8-4.1-6.3-7.1-10.5-9c-4.3-1.9-9-2.8-14.3-2.8c-8.9,0-16.2,2.8-21.8,8.4
		c-5.6,5.6-8.4,13.7-8.4,24.3c0,11.3,3.1,19.4,9.3,24.4c6.2,5,13.4,7.5,21.5,7.5c9.8,0,17.5-3,22.9-8.9c3-3.1,4.8-6.2,5.6-9.3h-17
		c-0.7,1-1.4,1.8-2.2,2.4c-2.3,1.9-5.3,2.4-9,2.4c-3.4,0-6.1-0.5-8.5-2c-4-2.5-6.3-6.6-6.5-12.7h44.4c0.1-5.3-0.1-9.3-0.5-12.1
		C153.3,262.9,151.7,258.7,149.2,255.1L149.2,255.1z M110.5,269.2c0.6-4,2-7.1,4.2-9.4c2.3-2.3,5.4-3.5,9.5-3.5
		c3.8,0,6.9,1.1,9.5,3.3c2.5,2.2,4,5.4,4.2,9.6H110.5L110.5,269.2z"/>
	<path class="st2" d="M62.2,243c-7.4,0-13.9,3.3-18.2,8.5c-4.1-5.2-10.4-8.5-18.2-8.5C10.1,243,0,254.5,0,269.7v36.5h14.7v-36.9
		c0-6.7,4.6-11.4,11.1-11.4c9.7,0,10.7,8,10.7,11.4v36.9h14.7v-36.9c0-6.7,4.7-11.4,11.1-11.4c9.7,0,10.8,8,10.8,11.4v36.9h14.6
		v-36.5C87.6,254,78.2,243,62.2,243L62.2,243z"/>
	<path class="st2" d="M366.3,235.2l0,17.2c-1.8-2.9-4.1-5.1-7-6.7c-2.9-1.6-6.1-2.4-9.8-2.4c-8,0-14.4,3-19.2,8.9
		c-4.8,6-7.2,14.6-7.2,25c0,9,2.4,16.4,7.3,22.2c4.9,5.8,14.4,8.3,22.9,8.3c29.5,0,29.2-25.3,29.2-25.3v-58.3
		C382.4,223.9,366.3,222.2,366.3,235.2L366.3,235.2z M363.2,289.5c-2.3,3.4-5.8,5-10.3,5s-7.9-1.7-10.1-5.1
		c-2.2-3.4-3.3-8.3-3.3-13.9c0-5.2,1.1-9.6,3.3-13.1c2.2-3.5,5.6-5.3,10.3-5.3c3.1,0,5.7,1,8.1,2.9c3.8,3.2,5.6,9,5.6,16.4
		C366.7,281.8,365.5,286.1,363.2,289.5z"/>
</g>
<path class="st2" d="M133.9,334.7c-13.2-0.6-19.9,2.5-24.2,5.9c-6,4.6-9.7,11.4-9.7,22.2v55.7h7.8c2.1,0,4.2-0.7,5.7-2.1
	c1.7-1.6,2.6-3.5,2.6-5.8v-20.8c1.9,3.3,4.4,5.7,7.5,7.2c3,1.4,6.4,2.1,10.4,2.1c7.4,0,13.5-2.9,18.2-8.8c4.7-6.1,7.1-14,7.1-23.7
	s-2.2-16.7-7.6-23.3C147.2,338,140.6,335,133.9,334.7L133.9,334.7z M139.3,380.4c-2.4,3.3-5.6,4.9-9.7,4.9c-4.4,0-7.8-1.6-10.1-4.9
	c-2.4-3-3.5-7.4-3.5-13.3c0-6.4,1.1-11,3.3-14c2.4-3.3,5.7-4.9,9.9-4.9c4.2,0,7.8,1.6,10.1,4.9c2.4,3.3,3.5,7.9,3.5,14
	C142.9,372.8,141.7,377.2,139.3,380.4L139.3,380.4z"/>
<path class="st2" d="M271.7,340.4c-5.5-4.1-11-6.3-20.6-6c-9.7,0.3-16.8,3-21.2,9c-4.4,6-6.6,13.8-6.6,23.4c0,8.2,1.7,14.8,5,19.9
	c3.3,5,7.3,8.5,11.9,10.3c4.6,1.9,9.3,2.3,14,1.2c4.7-1.1,8.5-3.8,11.2-8.1v3.9c-0.3,5-1.5,8.7-3.6,11.2c-2.1,2.5-4.4,4-7,4.5
	c-2.5,0.5-5.1,0.2-7.6-0.9c-2.6-1.2-4.4-2.8-5.7-5h-16.9c4.4,13.2,12.2,19,26.4,20c22.9,1.7,30.1-17.7,30.1-28.1v-32.8
	C281.2,351.9,277.6,345,271.7,340.4L271.7,340.4z M265,372.6c-0.6,3.6-1.6,6.3-3,8c-2.9,4-7.5,5.5-13.7,4.3
	c-6.2-1.2-9.3-7.1-9.3-17.8c0-5,0.9-9.4,2.8-13.3c1.9-3.9,5.4-5.8,10.6-5.8c3.9,0,6.8,1.4,8.8,4.2c2,2.8,3.3,6,3.8,9.5
	C265.6,365.4,265.6,369,265,372.6L265,372.6z"/>
<path class="st2" d="M209.5,338.8c-5.2-2.6-11.2-4-17.9-4c-10.3,0-17.6,2.7-21.9,8.1c-2.7,3.4-4.2,7.8-4.5,13.2h15.4
	c0.4-2.4,1.1-4.2,2.3-5.6c1.6-1.9,4.3-2.8,8.1-2.8c3.4,0,6,0.5,7.8,1.4c1.8,1,2.6,2.7,2.6,5.2c0,2.1-1.1,3.6-3.4,4.5
	c-1.3,0.6-3.4,1-6.4,1.4l-5.5,0.7c-6.2,0.8-10.9,2.1-14.1,3.9c-5.9,3.4-8.8,8.8-8.8,16.3c0,5.8,1.8,10.3,5.4,13.4
	c3.6,3.2,8.2,4.5,13.8,4.8c34.9,1.6,34.5-18.4,34.8-22.5v-23C217.4,346.5,214.8,341.4,209.5,338.8L209.5,338.8z M201.4,373.6
	c-0.1,5.3-1.6,9-4.6,11s-6.2,3-9.6,3c-2.2,0-4.1-0.6-5.6-1.8s-2.3-3.2-2.3-5.9c0-3.1,1.3-5.3,3.8-6.8c1.5-0.9,3.9-1.6,7.3-2.2
	l3.6-0.7c1.8-0.4,3.2-0.7,4.3-1.1c1.1-0.4,2.1-0.9,3.1-1.5L201.4,373.6L201.4,373.6z"/>
<path class="st2" d="M341.8,343.9c-5.1-6.5-13-9.7-23.4-9.7c-10.5,0-18.3,3.2-23.4,9.7c-5.2,6.4-7.7,14-7.7,22.8
	c0,8.8,2.6,16.6,7.7,22.9c5.1,6.3,13,9.5,23.4,9.5c10.5,0,18.3-3.2,23.4-9.5c5.1-6.4,7.7-14,7.7-22.9S347,350.3,341.8,343.9z
	 M329.1,380.8c-2.5,3.3-6.1,5-10.7,5c-4.7,0-8.3-1.7-10.8-5c-2.5-3.3-3.8-8-3.8-14.1s1.3-10.8,3.8-14.1c2.5-3.3,6.1-4.9,10.8-4.9
	c4.7,0,8.2,1.6,10.7,4.9c2.5,3.3,3.7,8,3.7,14.1S331.6,377.5,329.1,380.8z"/>
</svg>
