<?xml version="1.0" encoding="UTF-8"?>
<svg xmlns="http://www.w3.org/2000/svg" xmlns:xlink="http://www.w3.org/1999/xlink" width="1500pt" height="337.08pt" viewBox="0 0 1500 337.08" version="1.1">
<defs>
<clipPath id="clip1">
  <path d="M 0 0 L 1500 0 L 1500 337.078125 L 0 337.078125 Z M 0 0 "/>
</clipPath>
</defs>
<g id="surface1">
<g clip-path="url(#clip1)" clip-rule="nonzero">
<path style=" stroke:none;fill-rule:evenodd;fill:rgb(17.298889%,54.499817%,100%);fill-opacity:1;" d="M 1221.261719 101.019531 C 1227.03125 110.960938 1228.839844 122.175781 1229.488281 134.832031 L 1230.339844 151.6875 L 1230.339844 269.664063 L 1231.179688 286.5 C 1232.851563 314.066406 1253.109375 334.476563 1280.910156 336.238281 L 1297.75 337.078125 L 1297.75 151.6875 L 1298.601563 134.832031 C 1299.25 122.332031 1301.089844 110.863281 1306.910156 100.894531 C 1318.601563 80.871094 1340.308594 67.417969 1365.171875 67.417969 C 1390.121094 67.417969 1411.898438 80.96875 1423.558594 101.109375 C 1429.300781 111.03125 1431.070313 122.484375 1431.738281 134.832031 L 1432.578125 151.667969 L 1432.578125 269.664063 L 1433.429688 286.5 C 1435.179688 314.226563 1455.308594 334.621094 1483.160156 336.238281 L 1500 337.078125 L 1500 134.832031 C 1500 60.367188 1439.628906 0.00390625 1365.171875 0.00390625 C 1324.898438 0.00390625 1288.75 17.65625 1264.050781 45.648438 C 1239.339844 17.65625 1203.191406 0.00390625 1162.921875 0.00390625 C 1134.941406 0.00390625 1108.949219 8.523438 1087.410156 23.113281 C 1074.300781 8.523438 1044.941406 0.00390625 1028.089844 0.00390625 L 1028.089844 337.078125 L 1044.941406 336.238281 C 1073.089844 334.386719 1093.558594 314.503906 1094.660156 286.523438 L 1095.511719 269.664063 L 1095.511719 151.6875 L 1096.351563 134.832031 C 1097.058594 122.15625 1098.820313 110.914063 1104.621094 100.960938 C 1116.300781 80.902344 1138.039063 67.417969 1162.921875 67.417969 C 1187.828125 67.417969 1209.589844 80.929688 1221.261719 101.019531 M 67.414063 336.238281 L 84.269531 337.078125 L 337.078125 337.078125 L 336.234375 320.242188 C 333.980469 292.492188 314.328125 272.246094 286.515625 270.507813 L 269.664063 269.664063 L 117.976563 269.664063 L 320.222656 67.417969 L 319.382813 50.585938 C 318.046875 22.613281 297.582031 2.320313 269.660156 0.84375 L 252.808594 0.015625 L 0 0.00390625 L 0.84375 16.839844 C 3.027344 44.257813 22.972656 64.984375 50.542969 66.574219 L 67.414063 67.417969 L 219.101563 67.417969 L 16.855469 269.664063 L 17.695313 286.503906 C 19.359375 314.285156 39.425781 334.394531 67.414063 336.238281 M 961.871094 49.367188 C 1027.691406 115.183594 1027.691406 221.898438 961.871094 287.714844 C 896.054688 353.535156 789.339844 353.535156 723.519531 287.714844 C 657.703125 221.898438 657.703125 115.183594 723.519531 49.367188 C 756.402344 16.484375 799.492188 0.0273438 842.589844 0.00390625 C 885.902344 0.0273438 928.988281 16.484375 961.871094 49.367188 M 914.199219 97.035156 C 953.691406 136.527344 953.691406 200.554688 914.199219 240.046875 C 874.710938 279.535156 810.683594 279.535156 771.191406 240.046875 C 731.699219 200.554688 731.699219 136.527344 771.191406 97.035156 C 810.683594 57.542969 874.710938 57.542969 914.199219 97.035156 M 488.871094 0.00390625 C 531.96875 0.0273438 575.058594 16.484375 607.9375 49.367188 C 673.757813 115.183594 673.757813 221.898438 607.9375 287.714844 C 542.121094 353.535156 435.40625 353.535156 369.589844 287.714844 C 303.769531 221.898438 303.769531 115.183594 369.589844 49.367188 C 402.472656 16.484375 445.558594 0.0273438 488.65625 0.00390625 Z M 560.269531 97.035156 C 599.761719 136.527344 599.761719 200.554688 560.269531 240.046875 C 520.777344 279.535156 456.75 279.535156 417.257813 240.046875 C 377.765625 200.554688 377.765625 136.527344 417.257813 97.035156 C 456.75 57.542969 520.777344 57.542969 560.269531 97.035156 "/>
</g>
</g>
</svg>
